<?xml version="1.0" encoding="UTF-8" standalone="no" ?>
<!DOCTYPE svg PUBLIC "-//W3C//DTD SVG 1.1//EN" "http://www.w3.org/Graphics/SVG/1.1/DTD/svg11.dtd">
<svg xmlns="http://www.w3.org/2000/svg" xmlns:xlink="http://www.w3.org/1999/xlink" version="1.1" width="1080" height="1080" viewBox="0 0 1080 1080" xml:space="preserve">
<desc>Created with Fabric.js 5.2.4</desc>
<defs>
</defs>
<g transform="matrix(1 0 0 1 540 540)" id="5094408d-9c0c-402c-bf60-219ab43e1b85"  >
<rect style="stroke: none; stroke-width: 1; stroke-dasharray: none; stroke-linecap: butt; stroke-dashoffset: 0; stroke-linejoin: miter; stroke-miterlimit: 4; fill: rgb(255,255,255); fill-rule: nonzero; opacity: 1; visibility: hidden;" vector-effect="non-scaling-stroke"  x="-540" y="-540" rx="0" ry="0" width="1080" height="1080" />
</g>
<g transform="matrix(1 0 0 1 540 540)" id="a3bce363-a153-4172-8a0c-b10bf00b667c"  >
</g>
<g transform="matrix(1 0 0 1 540 540)"  >
<g style="" vector-effect="non-scaling-stroke"   >
		<g transform="matrix(1 0 0 1 -65.55 -67.65)" id="R"  >
<path style="stroke: none; stroke-width: 1; stroke-dasharray: none; stroke-linecap: butt; stroke-dashoffset: 0; stroke-linejoin: miter; stroke-miterlimit: 4; fill: rgb(0,0,0); fill-rule: nonzero; opacity: 1;" vector-effect="non-scaling-stroke"  transform=" translate(-71.85, -63.65)" d="M 13.4 127 L 56.8 127 L 56.8 93.3 L 67.2 93.3 L 82.2 127 L 130.3 127 L 109.20000000000002 84.6 C 121.10000000000002 76.69999999999999 127.80000000000001 63.599999999999994 127.80000000000001 46.8 C 127.80000000000001 17.999999999999996 108.10000000000001 0.29999999999999716 76.00000000000001 0.29999999999999716 L 13.400000000000013 0.29999999999999716 z M 56.1 61.099999999999994 L 56.1 33.99999999999999 L 69 33.99999999999999 C 78.6 33.99999999999999 84 38.699999999999996 84 47.49999999999999 C 84 56.19999999999999 78.6 61.099999999999994 69 61.099999999999994 z" stroke-linecap="round" />
</g>
		<g transform="matrix(1 0 0 1 -68.05 68.35)" id="P"  >
<path style="stroke: none; stroke-width: 1; stroke-dasharray: none; stroke-linecap: butt; stroke-dashoffset: 0; stroke-linejoin: miter; stroke-miterlimit: 4; fill: rgb(0,0,0); fill-rule: nonzero; opacity: 1;" vector-effect="non-scaling-stroke"  transform=" translate(-69.35, -199.65)" d="M 12.9 263 L 56.699999999999996 263 L 56.699999999999996 233.9 L 72.1 233.9 C 104.89999999999999 233.9 125.8 215 125.8 185.2 C 125.8 155.29999999999998 104.9 136.29999999999998 71.69999999999999 136.29999999999998 L 12.899999999999991 136.29999999999998 z M 55.8 199.7 L 55.8 171.39999999999998 L 65.89999999999999 171.39999999999998 C 76.3 171.39999999999998 82 176.7 82 185.49999999999997 C 82 194.39999999999998 76.3 199.69999999999996 65.9 199.69999999999996 z" stroke-linecap="round" />
</g>
		<g transform="matrix(1 0 0 1 56.75 52.2)" id="S"  >
<path style="stroke: none; stroke-width: 1; stroke-dasharray: none; stroke-linecap: butt; stroke-dashoffset: 0; stroke-linejoin: miter; stroke-miterlimit: 4; fill: rgb(0,0,0); fill-rule: nonzero; opacity: 1;" vector-effect="non-scaling-stroke"  transform=" translate(-194.15, -183.5)" d="M 260.1 180.7 C 258.70000000000005 146.79999999999998 242.60000000000002 127.79999999999998 216.8 128.79999999999998 C 195.10000000000002 129.7 183.4 144.2 178.70000000000002 176.09999999999997 C 176.50000000000003 191.59999999999997 173.4 196.89999999999998 167.60000000000002 197.19999999999996 C 162.8 197.39999999999995 159.50000000000003 193.39999999999995 159.20000000000002 186.69999999999996 C 158.9 178.89999999999995 163.10000000000002 174.39999999999995 171.00000000000003 173.99999999999997 L 169.30000000000004 133.2 C 142.60000000000005 134.79999999999998 126.80000000000004 155.89999999999998 128.20000000000005 188.7 C 129.50000000000006 220.5 145.50000000000006 239.2 170.20000000000005 238.2 C 192.30000000000004 237.29999999999998 204.60000000000005 222.79999999999998 208.40000000000003 192.79999999999998 C 210.10000000000002 178.2 213.90000000000003 171.7 220.00000000000003 171.49999999999997 C 225.10000000000002 171.19999999999996 228.10000000000002 175.29999999999998 228.40000000000003 182.19999999999996 C 228.80000000000004 190.29999999999995 224.40000000000003 194.99999999999997 216.30000000000004 195.29999999999995 L 218.00000000000003 237.09999999999997 C 245.90000000000003 235.99999999999997 261.5 215.19999999999996 260.1 180.69999999999996 z" stroke-linecap="round" />
</g>
		<g transform="matrix(1 0 0 1 59.3 -63.5)" id="V"  >
<path style="stroke: none; stroke-width: 1; stroke-dasharray: none; stroke-linecap: butt; stroke-dashoffset: 0; stroke-linejoin: miter; stroke-miterlimit: 4; fill: rgb(0,0,0); fill-rule: nonzero; opacity: 1;" vector-effect="non-scaling-stroke"  transform=" translate(-196.7, -67.8)" d="M 261.9 85.3 L 260 39.8 L 131.5 -0.4000000000000057 L 133.5 46.099999999999994 L 173.2 56.599999999999994 L 204 64.6 L 204 65.3 L 174 75.6 L 135.3 89.3 L 137.20000000000002 136 z" stroke-linecap="round" />
</g>
</g>
</g>
</svg>