<svg version="1.2" xmlns="http://www.w3.org/2000/svg" viewBox="0 0 253 273" width="253" height="273">
	<title>New Project</title>
	<style>
		.s0 { fill: #ffffff } 
	</style>
	<path id="R" class="s0" aria-label="R"  d="m30.4 136h36v-27.9h8.6l12.5 27.9h39.8l-17.5-35.1c9.9-6.6 15.5-17.4 15.5-31.4 0-23.8-16.4-38.5-43-38.5h-51.8zm35.3-54.6v-22.5h10.7c7.9 0 12.5 3.9 12.5 11.3 0 7.1-4.6 11.2-12.5 11.2z"/>
	<path id="P" class="s0" aria-label="P"  d="m31.9 258h36.3l0.1-24.2h12.7c27.1 0 44.5-15.6 44.5-40.3 0-24.8-17.4-40.5-44.8-40.5h-48.8zm35.6-52.5v-23.4h8.4c8.5 0 13.3 4.3 13.3 11.7 0 7.4-4.8 11.7-13.3 11.7z"/>
	<path id="S" class="s0" aria-label="S"  d="m242 194.9c-1.1-28.1-14.4-43.9-35.8-43-18 0.8-27.7 12.7-31.6 39.2-1.9 12.8-4.4 17.3-9.2 17.5-4 0.1-6.7-3.2-6.9-8.8-0.3-6.4 3.1-10.1 9.7-10.4l-1.4-33.9c-22.1 1.4-35.2 18.9-34.1 46 1.1 26.4 14.4 41.9 34.9 41.1 18.3-0.8 28.4-12.8 31.6-37.7 1.5-12.1 4.5-17.4 9.6-17.7 4.2-0.1 6.8 3.2 7 8.9 0.3 6.8-3.3 10.7-10.1 10.9l1.5 34.7c23.1-1 36-18.2 34.8-46.8z"/>
	<path id="V" class="s0" aria-label="V"  d="m244.2 113.2l-1.5-37.8-106.5-33.2 1.6 38.5 32.9 8.7 25.5 6.6 0.1 0.6-24.9 8.5-32.1 11.4 1.6 38.7z"/>
</svg>