<svg xmlns="http://www.w3.org/2000/svg" version="1.1" xmlns:xlink="http://www.w3.org/1999/xlink" xmlns:svgjs="http://svgjs.dev/svgjs" width="1500" height="1500" viewBox="0 0 1500 1500"><rect width="1500" height="1500" fill="#000000"></rect><g transform="matrix(0.6666666666666666,0,0,0.6666666666666666,249.39393939393938,438.5856950067477)"><svg viewBox="0 0 396 247" data-background-color="#000000" preserveAspectRatio="xMidYMid meet" height="935" width="1500" xmlns="http://www.w3.org/2000/svg" xmlns:xlink="http://www.w3.org/1999/xlink"><g id="tight-bounds" transform="matrix(1,0,0,1,0.2400000000000091,-0.09999999999999432)"><svg viewBox="0 0 395.52 247.2" height="247.2" width="395.52"><g><svg></svg></g><g><svg viewBox="0 0 395.52 247.2" height="247.2" width="395.52"><g transform="matrix(1,0,0,1,155.51427412863444,47.215199999999996)"><svg viewBox="0 0 84.49145174273112 152.7696" height="152.7696" width="84.49145174273112"><g><svg viewBox="0 0 84.49145174273112 152.7696" height="152.7696" width="84.49145174273112"><g><svg viewBox="0 0 155.68545380094918 281.4959858354623" height="152.7696" width="84.49145174273112"><g><svg viewBox="0 0 155.68545380094918 281.4959858354623" height="281.4959858354623" width="155.68545380094918"><g id="textblocktransform"><svg viewBox="0 0 155.68545380094918 281.4959858354623" height="281.4959858354623" width="155.68545380094918" id="textblock"><g><svg viewBox="0 0 155.68545380094918 151.825483872" height="151.825483872" width="155.68545380094918"><g transform="matrix(1,0,0,1,0,0)"><svg width="155.68545380094918" viewBox="2.55 -5.9 6.05 5.9" height="151.825483872" data-palette-color="#ffffff"><path d="M2.55-2.95L2.55-2.95Q2.55-4.15 3.4-5.03 4.25-5.9 5.5-5.9L5.5-5.9Q6.8-5.9 7.7-5.03 8.6-4.15 8.6-2.95L8.6-2.95Q8.6-1.7 7.7-0.85 6.8 0 5.5 0L5.5 0Q4.25 0 3.4-0.85 2.55-1.7 2.55-2.95Z" opacity="1" transform="matrix(1,0,0,1,0,0)" fill="#ffffff" class="wordmark-text-0" data-fill-palette-color="primary" id="text-0"></path></svg></g></svg></g><g transform="matrix(1,0,0,1,0,187.66783680256628)"><svg viewBox="0 0 155.68545380094918 93.82814903289602" height="93.82814903289602" width="155.68545380094918"><g transform="matrix(1,0,0,1,0,0)"><svg width="155.68545380094918" viewBox="0.3 -9.4 10.25 9.700000000000001" height="93.82814903289602" data-palette-color="#ffffff"><path d="M5.05 0.3L5.05 0.3Q3 0.3 1.65-1 0.3-2.3 0.3-4.2L0.3-4.2Q0.3-6.35 1.88-7.88 3.45-9.4 5.75-9.4L5.75-9.4Q7.8-9.4 9.18-8.1 10.55-6.8 10.55-4.9L10.55-4.9Q10.55-2.75 8.95-1.23 7.35 0.3 5.05 0.3Z" opacity="1" transform="matrix(1,0,0,1,0,0)" fill="#ffffff" class="slogan-text-1" data-fill-palette-color="secondary" id="text-1"></path></svg></g></svg></g></svg></g></svg></g></svg></g></svg></g></svg></g><g><path d="M165.846 0c34.781 0 66.207 14.367 88.667 37.489l-5.257 0c-21.579-20.906-50.992-33.774-83.41-33.774-32.418 0-61.832 12.868-83.411 33.774l-5.257 0c22.46-23.123 53.886-37.489 88.668-37.489zM165.846 247.2c-34.781 0-66.207-14.367-88.668-37.489h5.257c21.579 20.906 50.992 33.774 83.411 33.774 32.418 0 61.832-12.868 83.41-33.774h5.257c-22.46 23.123-53.886 37.489-88.667 37.489z" fill="#ffffff" stroke="transparent" data-fill-palette-color="tertiary"></path></g></svg></g><defs></defs></svg><rect width="395.52" height="247.2" fill="none" stroke="none" visibility="hidden"></rect></g></svg></g></svg>