<svg version="1.2" xmlns="http://www.w3.org/2000/svg" viewBox="0 0 253 273" width="253" height="273">
	<title>New Project</title>
	<style>
		.s0 { fill: #ffffff } 
	</style>
	<path id="R" class="s0" aria-label="R"  d="m13.4 127h43.4v-33.7h10.4l15 33.7h48.1l-21.1-42.4c11.9-7.9 18.6-21 18.6-37.8 0-28.8-19.7-46.5-51.8-46.5h-62.6zm42.7-65.9v-27.1h12.9c9.6 0 15 4.7 15 13.5 0 8.7-5.4 13.6-15 13.6z"/>
	<path id="P" class="s0" aria-label="P"  d="m12.9 263h43.8v-29.1h15.4c32.8 0 53.7-18.9 53.7-48.7 0-29.9-20.9-48.9-54.1-48.9h-58.8zm42.9-63.3v-28.3h10.1c10.4 0 16.1 5.3 16.1 14.1 0 8.9-5.7 14.2-16.1 14.2z"/>
	<path id="S" class="s0" aria-label="S"  d="m260.1 180.7c-1.4-33.9-17.5-52.9-43.3-51.9-21.7 0.9-33.4 15.4-38.1 47.3-2.2 15.5-5.3 20.8-11.1 21.1-4.8 0.2-8.1-3.8-8.4-10.5-0.3-7.8 3.9-12.3 11.8-12.7l-1.7-40.8c-26.7 1.6-42.5 22.7-41.1 55.5 1.3 31.8 17.3 50.5 42 49.5 22.1-0.9 34.4-15.4 38.2-45.4 1.7-14.6 5.5-21.1 11.6-21.3 5.1-0.3 8.1 3.8 8.4 10.7 0.4 8.1-4 12.8-12.1 13.1l1.7 41.8c27.9-1.1 43.5-21.9 42.1-56.4z"/>
	<path id="V" class="s0" aria-label="V"  d="m261.9 85.3l-1.9-45.5-128.5-40.2 2 46.5 39.7 10.5 30.8 8v0.7l-30 10.3-38.7 13.7 1.9 46.7z"/>
</svg>